<svg version="1.2" baseProfile="tiny" xmlns="http://www.w3.org/2000/svg" viewBox="0 0 108 12">
    <path d="M22.53 3.53c.4.26.7.62.92 1.08.22.48.33 1 .33 1.62 0 .6-.1 1.13-.32 1.58-.22.46-.52.8-.92 1.06-.4.25-.85.37-1.36.37-.44 0-.83-.1-1.16-.28-.34-.2-.6-.46-.77-.8v3.16h-1.2v-8h1.2v.95c.17-.35.43-.62.77-.8s.72-.3 1.16-.3c.5 0 .96.13 1.35.38zm-.4 4.2c.28-.35.42-.86.42-1.5 0-.68-.15-1.2-.44-1.56-.28-.37-.7-.55-1.2-.55-.53 0-.94.18-1.22.54-.3.36-.43.87-.43 1.53s.14 1.17.43 1.53c.28.36.7.54 1.2.54.54 0 .95-.18 1.24-.53zM26.16 8.86c-.44-.25-.78-.6-1-1.06-.25-.46-.37-1-.37-1.6 0-.62.1-1.16.35-1.62s.57-.8 1-1.06c.44-.25.95-.37 1.52-.37.58 0 1.1.12 1.52.37s.76.6 1 1.06c.24.46.35 1 .35 1.6 0 .62-.1 1.16-.35 1.62-.24.46-.57.8-1 1.06-.44.25-.95.37-1.53.37-.57 0-1.08-.12-1.52-.37zm2.74-1.12c.3-.35.43-.86.43-1.54s-.15-1.2-.43-1.55c-.3-.35-.7-.53-1.23-.53s-.93.18-1.22.53c-.3.36-.43.87-.43 1.55s.14 1.2.42 1.54c.3.36.7.53 1.23.53.54 0 .95-.17 1.23-.53zM39.74 3.3h1.2L38.7 9.14h-1.1l-1.54-4.2-1.55 4.2h-1.1L31.2 3.3h1.26l1.58 4.4 1.6-4.4h.95l1.6 4.42 1.57-4.43zM46.92 6.42h-4.14c.1 1.24.7 1.86 1.85 1.86.67 0 1.28-.22 1.82-.66l.37.85c-.27.24-.6.42-1 .56-.4.13-.8.2-1.23.2-.94 0-1.68-.27-2.22-.8-.54-.54-.8-1.28-.8-2.22 0-.6.1-1.13.34-1.6.24-.45.57-.8 1-1.07.43-.26.9-.38 1.46-.38.8 0 1.4.25 1.86.76.45.53.68 1.23.68 2.14v.38zM43.3 4.47c-.28.3-.45.7-.5 1.26h3.08c-.03-.55-.16-.97-.42-1.26s-.6-.43-1.06-.43c-.46 0-.83.14-1.1.43zM51.82 4.17l-.74.07c-.57.05-.98.23-1.24.53s-.37.67-.37 1.12v3.25h-1.22V3.3h1.18v1c.3-.68.95-1.06 1.9-1.13l.4-.02.1 1.02zM59.13 8.26l-.07.92c-.2.04-.4.05-.62.05-.76 0-1.33-.2-1.7-.56s-.56-.9-.56-1.6V4.22h-1.14V3.3h1.14V1.52h1.22V3.3H59v.93h-1.6V7c0 .87.4 1.3 1.18 1.3.2 0 .37-.02.55-.04zM65.3 5.5v3.65h-1.2V5.57c0-.5-.1-.86-.3-1.1-.2-.22-.5-.34-.92-.34-.5 0-.88.15-1.17.46-.3.3-.44.7-.44 1.2v3.35h-1.2V.7h1.2v3.48c.2-.34.47-.6.8-.77.34-.17.72-.25 1.15-.25 1.4 0 2.1.8 2.1 2.36zM71.98 6.42h-4.14c.08 1.24.7 1.86 1.84 1.86.68 0 1.28-.22 1.83-.66l.38.85c-.27.24-.6.42-1 .56-.4.13-.8.2-1.23.2-.94 0-1.68-.27-2.22-.8-.54-.54-.8-1.28-.8-2.22 0-.6.1-1.13.35-1.6.23-.45.57-.8 1-1.07.42-.26.9-.38 1.45-.38.8 0 1.42.25 1.87.76.45.53.68 1.23.68 2.14v.38zm-3.63-1.95c-.28.3-.45.7-.5 1.26h3.08c-.02-.55-.16-.97-.4-1.26s-.62-.43-1.07-.43c-.47 0-.84.14-1.1.43zM72.94 8.5l.37-.9c.6.48 1.3.7 2.1.7.4 0 .7-.06.9-.2.22-.12.32-.3.32-.55 0-.2-.07-.37-.2-.5s-.4-.2-.74-.3l-.97-.2c-.5-.13-.9-.32-1.16-.6-.27-.27-.4-.6-.4-1.03 0-.52.22-.95.64-1.28.43-.33 1-.5 1.7-.5.4 0 .8.07 1.18.2.37.14.7.32.97.56l-.37.86c-.58-.46-1.18-.7-1.8-.7-.36 0-.65.08-.86.23s-.32.33-.32.58c0 .2.07.36.2.48.13.13.34.22.63.28l1 .23c.57.13 1 .33 1.25.6.27.26.4.6.4 1.05 0 .52-.22.94-.64 1.25-.42.3-1 .46-1.73.46-1 0-1.83-.25-2.43-.74zM83.3 3.73c.37.4.56 1 .56 1.8v3.62H82.7v-.97c-.16.34-.4.6-.7.78-.28.18-.63.27-1.03.27s-.74-.08-1.06-.23c-.3-.16-.56-.38-.74-.66-.18-.28-.27-.6-.27-.93 0-.42.1-.75.32-1 .22-.24.58-.4 1.1-.52.5-.1 1.2-.15 2.1-.15h.26v-.35c0-.45-.1-.77-.28-.97-.2-.2-.5-.3-.92-.3-.66 0-1.33.2-2 .62l-.35-.85c.3-.22.7-.4 1.13-.52.45-.14.87-.2 1.28-.2.78 0 1.37.2 1.75.58zm-1.04 4.15c.28-.3.42-.68.42-1.16v-.3h-.22c-.62 0-1.1.02-1.43.07s-.58.14-.72.28c-.14.13-.2.32-.2.57 0 .28.1.5.3.7.2.2.46.28.78.28.44 0 .8-.15 1.08-.45zM90.65 3.3v5.85h-1.18V8.2c-.18.34-.44.6-.76.77-.3.17-.68.26-1.08.26-1.42 0-2.13-.78-2.13-2.35v-3.6h1.2v3.6c0 .46.1.8.3 1.03s.48.35.88.35c.47 0 .85-.16 1.13-.46s.44-.72.44-1.22v-3.3h1.2zM95.9 4.17l-.73.07c-.57.05-1 .23-1.24.53s-.38.67-.38 1.12v3.25h-1.2V3.3h1.17v1c.3-.68.94-1.06 1.9-1.13l.4-.02.08 1.02zM101.87 3.3v5.85h-1.18V8.2c-.2.34-.45.6-.77.77-.32.17-.7.26-1.1.26-1.4 0-2.12-.78-2.12-2.35v-3.6h1.22v3.6c0 .46.1.8.3 1.03s.48.35.88.35c.47 0 .85-.16 1.13-.46s.43-.72.43-1.22v-3.3h1.2zM103.2 8.5l.36-.9c.6.48 1.3.7 2.1.7.4 0 .7-.06.9-.2.2-.12.3-.3.3-.55 0-.2-.06-.37-.2-.5s-.38-.2-.72-.3l-.98-.2c-.52-.13-.9-.32-1.17-.6-.28-.27-.4-.6-.4-1.03 0-.52.2-.95.63-1.28.43-.33 1-.5 1.7-.5.4 0 .8.07 1.18.2.38.14.7.32.98.56l-.37.86c-.57-.46-1.16-.7-1.78-.7-.37 0-.66.08-.87.23s-.32.33-.32.58c0 .2.07.36.2.48.13.13.34.22.63.28l1 .23c.56.13.98.33 1.24.6.27.26.4.6.4 1.04 0 .54-.2.96-.64 1.27-.43.3-1 .46-1.74.46-1 0-1.82-.25-2.43-.74z"/>
    <linearGradient id="a" gradientUnits="userSpaceOnUse" x1=".36" y1="12.13" x2="2.64" y2="5.87">
        <stop offset="0" stop-color="#0888FC"/>
        <stop offset=".5" stop-color="#003FBE"/>
    </linearGradient>
    <path fill="url(#a)" d="M0 6h3v6H0z"/>
    <path fill="#0888FC"
          d="M5 1H3V0H0v6c0 2.76 2.24 5 5 5s5-2.24 5-5-2.23-5-5-5zm0 7c-1.1 0-2-.9-2-2s.9-2 2-2 2 .9 2 2-.9 2-2 2z"/>
    <path fill="#003FBE" d="M3 4v2c0-1.1.9-2 2-2H3z"/>
    <linearGradient id="b" gradientUnits="userSpaceOnUse" x1="7.5" y1="11" x2="7.5" y2="6">
        <stop offset="0" stop-color="#0888FC"/>
        <stop offset=".46" stop-color="#0888FC"/>
        <stop offset=".5" stop-color="#0888FC"/>
        <stop offset=".66" stop-color="#1085F8"/>
        <stop offset=".91" stop-color="#277CEC"/>
        <stop offset="1" stop-color="#3278E6"/>
    </linearGradient>
    <path fill="url(#b)" d="M7 6c0 1.1-.9 2-2 2v3c2.76 0 5-2.24 5-5H7z"/>
    <linearGradient id="c" gradientUnits="userSpaceOnUse" x1="7.5" y1="6" x2="7.5" y2="1">
        <stop offset="0" stop-color="#3278E6"/>
        <stop offset="1" stop-color="#003FBE"/>
    </linearGradient>
    <path fill="url(#c)" d="M5 1v3c1.1 0 2 .9 2 2h3c0-2.76-2.23-5-5-5z"/>
</svg>
